<svg xmlns="http://www.w3.org/2000/svg" width="532" height="559" viewBox="0 0 532 559">
<g>
<path d="M 0.00 0.00 L 532.00 0.00 L 532.00 559.00 L 0.00 559.00 ZM 276.01 530.39 C282.28,532.67 296.16,532.13 301.55,529.41 C303.72,528.32 312.92,523.12 322.00,517.85 C342.68,505.86 366.06,492.37 395.00,475.72 C440.54,449.53 448.90,443.69 461.50,429.32 C486.22,401.12 498.21,367.27 496.69,330.00 C495.27,294.93 481.87,263.77 457.67,239.19 C444.03,225.34 438.38,221.44 401.00,200.01 C393.02,195.44 384.48,190.48 382.00,188.98 C363.92,178.06 302.98,143.55 299.75,142.41 C297.55,141.63 292.05,141.00 287.51,141.00 C280.07,141.00 278.58,141.34 272.17,144.55 C264.06,148.61 258.99,153.83 255.22,162.00 C251.52,170.00 251.52,182.17 255.21,190.18 C259.43,199.35 264.64,204.06 280.86,213.37 C288.91,218.00 302.70,225.96 311.50,231.06 C320.30,236.16 342.99,249.27 361.92,260.19 C380.85,271.11 398.55,281.72 401.25,283.77 C416.88,295.65 426.36,315.91 426.37,337.50 C426.38,349.06 424.54,357.17 419.59,367.50 C412.48,382.31 403.08,390.88 378.79,404.68 C370.93,409.15 357.75,416.72 349.50,421.51 C341.25,426.30 323.92,436.30 311.00,443.73 C268.88,467.95 264.25,470.86 260.44,475.51 C255.28,481.81 253.00,488.54 253.00,497.50 C253.00,512.95 261.52,525.14 276.01,530.39 ZM 177.36 352.96 C183.29,354.13 184.30,354.13 190.20,352.88 C197.58,351.31 202.70,348.57 208.33,343.15 C213.01,338.65 216.11,333.81 218.34,327.53 C219.06,325.51 219.60,297.25 219.96,242.50 L 220.50 160.50 L 223.12 153.76 C227.24,143.17 231.89,136.11 240.11,127.94 C256.10,112.03 278.34,105.09 300.57,109.06 C309.47,110.65 316.33,113.46 328.50,120.46 C334.55,123.95 363.58,140.71 393.00,157.71 C422.42,174.71 448.52,189.43 451.00,190.44 C458.30,193.39 468.48,192.91 476.21,189.24 C483.90,185.59 490.11,179.52 493.76,172.09 C496.13,167.25 496.50,165.29 496.50,157.50 C496.50,149.60 496.15,147.78 493.61,142.61 C492.01,139.36 489.09,135.09 487.10,133.11 C485.12,131.12 467.99,120.55 449.00,109.57 C430.02,98.61 401.67,82.22 386.00,73.13 C352.99,54.00 343.53,49.12 332.50,45.49 C296.45,33.62 258.83,36.26 225.43,52.99 C202.67,64.39 184.67,79.98 171.75,99.50 C160.68,116.22 155.38,128.84 150.75,149.48 C148.52,159.43 148.50,160.09 148.50,243.00 L 148.50 326.50 L 151.42 332.45 C156.47,342.73 166.75,350.86 177.36,352.96 ZM 168.00 456.39 C169.38,456.64 178.38,456.70 188.00,456.51 C219.06,455.92 232.59,451.51 270.00,429.76 C286.56,420.13 300.33,412.17 327.50,396.51 C376.05,368.53 381.97,364.85 385.50,360.50 C394.01,350.02 396.04,337.22 391.36,323.50 C388.94,316.39 379.46,307.06 371.71,304.16 C364.25,301.37 353.02,301.23 346.26,303.84 C343.64,304.85 329.58,312.56 315.00,320.97 C272.18,345.68 257.65,354.07 237.00,366.01 C206.14,383.86 200.46,386.00 184.00,386.00 C172.91,386.00 165.43,384.32 155.32,379.55 C136.79,370.81 124.64,356.85 117.87,336.50 L 115.53 329.50 L 115.02 248.00 C114.51,167.51 114.47,166.44 112.37,162.00 C109.10,155.07 102.66,148.49 95.81,145.06 C90.45,142.38 88.64,142.00 81.38,142.00 C70.84,142.00 63.92,144.47 56.99,150.70 C54.19,153.22 50.68,157.58 49.19,160.39 L 46.50 165.50 L 46.21 248.00 C45.89,340.04 45.96,341.14 52.58,360.95 C60.02,383.22 69.39,398.40 85.98,415.08 C109.18,438.40 131.84,449.81 168.00,456.39 Z" fill="rgb(0,0,0)"/>
<path d="M 276.01 530.39 C261.52,525.14 253.00,512.95 253.00,497.50 C253.00,488.54 255.28,481.81 260.44,475.51 C264.25,470.86 268.88,467.95 311.00,443.73 C323.92,436.30 341.25,426.30 349.50,421.51 C357.75,416.72 370.93,409.15 378.79,404.68 C403.08,390.88 412.48,382.31 419.59,367.50 C424.54,357.17 426.38,349.06 426.37,337.50 C426.36,315.91 416.88,295.65 401.25,283.77 C398.55,281.72 380.85,271.11 361.92,260.19 C342.99,249.27 320.30,236.16 311.50,231.06 C302.70,225.96 288.91,218.00 280.86,213.37 C264.64,204.06 259.43,199.35 255.21,190.18 C251.52,182.17 251.52,170.00 255.22,162.00 C258.99,153.83 264.06,148.61 272.17,144.55 C278.58,141.34 280.07,141.00 287.51,141.00 C292.05,141.00 297.55,141.63 299.75,142.41 C302.98,143.55 363.92,178.06 382.00,188.98 C384.48,190.48 393.02,195.44 401.00,200.01 C438.38,221.44 444.03,225.34 457.67,239.19 C481.87,263.77 495.27,294.93 496.69,330.00 C498.21,367.27 486.22,401.12 461.50,429.32 C448.90,443.69 440.54,449.53 395.00,475.72 C366.06,492.37 342.68,505.86 322.00,517.85 C312.92,523.12 303.72,528.32 301.55,529.41 C296.16,532.13 282.28,532.67 276.01,530.39 ZM 168.00 456.39 C131.84,449.81 109.18,438.40 85.98,415.08 C69.39,398.40 60.02,383.22 52.58,360.95 C45.96,341.14 45.89,340.04 46.21,248.00 L 46.50 165.50 L 49.19 160.39 C50.68,157.58 54.19,153.22 56.99,150.70 C63.92,144.47 70.84,142.00 81.38,142.00 C88.64,142.00 90.45,142.38 95.81,145.06 C102.66,148.49 109.10,155.07 112.37,162.00 C114.47,166.44 114.51,167.51 115.02,248.00 L 115.53 329.50 L 117.87 336.50 C124.64,356.85 136.79,370.81 155.32,379.55 C165.43,384.32 172.91,386.00 184.00,386.00 C200.46,386.00 206.14,383.86 237.00,366.01 C257.65,354.07 272.18,345.68 315.00,320.97 C329.58,312.56 343.64,304.85 346.26,303.84 C353.02,301.23 364.25,301.37 371.71,304.16 C379.46,307.06 388.94,316.39 391.36,323.50 C396.04,337.22 394.01,350.02 385.50,360.50 C381.97,364.85 376.05,368.53 327.50,396.51 C300.33,412.17 286.56,420.13 270.00,429.76 C232.59,451.51 219.06,455.92 188.00,456.51 C178.38,456.70 169.38,456.64 168.00,456.39 ZM 177.36 352.96 C166.75,350.86 156.47,342.73 151.42,332.45 L 148.50 326.50 L 148.50 243.00 C148.50,160.09 148.52,159.43 150.75,149.48 C155.38,128.84 160.68,116.22 171.75,99.50 C184.67,79.98 202.67,64.39 225.43,52.99 C258.83,36.26 296.45,33.62 332.50,45.49 C343.53,49.12 352.99,54.00 386.00,73.13 C401.67,82.22 430.02,98.61 449.00,109.57 C467.99,120.55 485.12,131.12 487.10,133.11 C489.09,135.09 492.01,139.36 493.61,142.61 C496.15,147.78 496.50,149.60 496.50,157.50 C496.50,165.29 496.13,167.25 493.76,172.09 C490.11,179.52 483.90,185.59 476.21,189.24 C468.48,192.91 458.30,193.39 451.00,190.44 C448.52,189.43 422.42,174.71 393.00,157.71 C363.58,140.71 334.55,123.95 328.50,120.46 C316.33,113.46 309.47,110.65 300.57,109.06 C278.34,105.09 256.10,112.03 240.11,127.94 C231.89,136.11 227.24,143.17 223.12,153.76 L 220.50 160.50 L 219.96 242.50 C219.60,297.25 219.06,325.51 218.34,327.53 C216.11,333.81 213.01,338.65 208.33,343.15 C202.70,348.57 197.58,351.31 190.20,352.88 C184.30,354.13 183.29,354.13 177.36,352.96 Z" fill="rgb(254,254,254)"/>
</g>
</svg>